<svg xmlns="http://www.w3.org/2000/svg" viewBox="0 0 1821.76 1299.35"><defs><style>.cls-1{fill:#1c1c31;}.cls-2{fill:#9cadb4;}</style></defs><title>lookiero_tech</title><g id="Capa_2" data-name="Capa 2"><polygon class="cls-1" points="420.7 659.39 324.25 659.39 324.25 525.12 345.22 525.12 345.22 638.43 420.7 638.43 420.7 659.39"/><rect class="cls-1" x="889.39" y="519.62" width="20.96" height="140.22"/><path class="cls-1" d="M550.88,628.78a54.28,54.28,0,1,1,16-43.78h21a75.32,75.32,0,0,0-1.8-12.36A74.57,74.57,0,1,0,552.45,654,75.74,75.74,0,0,0,564,645.12Z"/><path class="cls-1" d="M605.06,551.9a53.53,53.53,0,1,1-14.82,51.18,54.35,54.35,0,0,1-1.21-7.4h-21a74.36,74.36,0,1,0,35.41-69,75.86,75.86,0,0,0-11.57,8.89Z"/><polygon class="cls-1" points="1063.16 540.16 1063.16 519.62 950.23 519.62 950.23 660.82 1063.16 660.82 1063.16 640.28 970.77 640.28 970.77 598.34 1028.69 598.34 1028.69 577.8 970.77 577.8 970.77 540.16 1063.16 540.16"/><path class="cls-1" d="M1327.83,659.61a72.56,72.56,0,1,1,72.55-72.56A72.64,72.64,0,0,1,1327.83,659.61Zm0-124.63a52.07,52.07,0,1,0,52.07,52.07A52.13,52.13,0,0,0,1327.83,535Z"/><polygon class="cls-1" points="760.09 618.03 790.76 588 836.61 660.88 861.38 660.88 806.09 573 856.43 523.7 826.46 523.7 760.09 588.69 760.09 525.12 739.13 525.12 739.13 659.85 760.09 659.85 760.09 618.03"/><path class="cls-1" d="M1227.91,565.4v-3.34a42.57,42.57,0,0,0-42.52-42.52H1105V661.43h20.48V607.92H1173l29.57,53.55h23.4l-30.34-54.92A42.51,42.51,0,0,0,1227.91,565.4Zm-20.49,0a22.06,22.06,0,0,1-22,22h-59.87V540h59.87a22.06,22.06,0,0,1,22,22Z"/><path class="cls-2" d="M1163.2,696.38v19.43h17.61v9.36H1163.2v36.48c0,8.39,2.38,13.14,9.23,13.14a27.23,27.23,0,0,0,7.12-.84l.56,9.23a30.07,30.07,0,0,1-10.9,1.67c-5.73,0-10.34-1.81-13.28-5.17-3.49-3.63-4.75-9.64-4.75-17.61v-36.9H1140.7v-9.36h10.48V699.6Z"/><path class="cls-2" d="M1200.66,751.87c.28,16.63,10.9,23.48,23.2,23.48,8.8,0,14.11-1.54,18.73-3.49l2.09,8.8c-4.33,2-11.74,4.19-22.5,4.19-20.82,0-33.26-13.69-33.26-34.1s12-36.48,31.72-36.48c22.09,0,28,19.43,28,31.87a46.44,46.44,0,0,1-.42,5.73Zm36.06-8.81c.14-7.82-3.22-20-17-20-12.44,0-17.89,11.46-18.87,20Z"/><path class="cls-2" d="M1312.05,780.94c-3.22,1.68-10.34,3.91-19.43,3.91-20.41,0-33.68-13.83-33.68-34.52s14.25-35.92,36.34-35.92a41.28,41.28,0,0,1,17,3.49l-2.8,9.51c-2.93-1.68-7.54-3.21-14.25-3.21-15.52,0-23.9,11.46-23.9,25.57,0,15.66,10.06,25.3,23.48,25.3a35,35,0,0,0,15.09-3.35Z"/><path class="cls-2" d="M1326.44,684.22h12.3v42.21h.28a22.79,22.79,0,0,1,8.81-8.66,25.25,25.25,0,0,1,12.58-3.5c9.08,0,23.62,5.59,23.62,28.93v40.26h-12.3V744.6c0-10.9-4.06-20.12-15.66-20.12-8,0-14.25,5.59-16.49,12.29a14.89,14.89,0,0,0-.84,5.87v40.82h-12.3Z"/><path class="cls-2" d="M1497.51,750.19l-64.85,33.27v-9.65l55.07-27.39v-.28l-55.07-27.4V709.1l64.85,33.27Z"/></g></svg>