<svg xmlns="http://www.w3.org/2000/svg" viewBox="0 0 160 160"><defs><style>.cls-1{fill:#e94571;}.cls-2{fill:#f6f6f6;}.cls-3,.cls-4,.cls-5{fill:none;stroke-miterlimit:10;stroke-width:3px;}.cls-3,.cls-4{stroke:#e94571;stroke-linecap:round;}.cls-4{stroke-dasharray:2.1 4.2;}.cls-5{stroke:#1d1d1b;}.cls-6{font-size:11px;fill:#1d1d1b;font-family:Lato-Black, Lato;font-weight:800;}</style></defs><title>Icon-Ticket</title><g id="Capa_1" data-name="Capa 1"><path class="cls-1" d="M80,3A77,77,0,1,1,3,80,77.08,77.08,0,0,1,80,3m0-3a80,80,0,1,0,80,80A80,80,0,0,0,80,0Z"/></g><g id="Capa_2" data-name="Capa 2"><line class="cls-2" x1="109.33" y1="54.23" x2="109.33" y2="110.88"/><line class="cls-3" x1="109.33" y1="54.23" x2="109.33" y2="55.23"/><line class="cls-4" x1="109.33" y1="59.43" x2="109.33" y2="107.78"/><line class="cls-3" x1="109.33" y1="109.88" x2="109.33" y2="110.88"/><path class="cls-5" d="M127.56,74.13V68a13.83,13.83,0,0,0-13.78-13.78H48.45A13.82,13.82,0,0,0,34.67,68v6.12a8.43,8.43,0,0,1,0,16.85V97.1a13.82,13.82,0,0,0,13.78,13.78h65.33A13.83,13.83,0,0,0,127.56,97.1V91a8.43,8.43,0,1,1,0-16.85Z"/><text class="cls-6" transform="translate(103.58 101.54) rotate(-90)">TICKET</text></g></svg>