<?xml version="1.0" encoding="UTF-8"?>
<svg width="827px" height="427px" viewBox="0 0 827 427" version="1.1" xmlns="http://www.w3.org/2000/svg" xmlns:xlink="http://www.w3.org/1999/xlink">
    <!-- Generator: Sketch 47.1 (45422) - http://www.bohemiancoding.com/sketch -->
    <title>Group 4</title>
    <desc>Created with Sketch.</desc>
    <defs>
        <rect id="path-1" x="262" y="0" width="303" height="390"></rect>
        <rect id="path-2" x="390" y="195" width="47" height="195"></rect>
        <rect id="path-3" x="449" y="195" width="47" height="195"></rect>
        <rect id="path-4" x="331" y="195" width="47" height="195"></rect>
        <rect id="path-5" x="272" y="275" width="47" height="115"></rect>
        <rect id="path-6" x="508" y="275" width="47" height="115"></rect>
        <rect id="path-7" x="0" y="0" width="17" height="40"></rect>
        <rect id="path-8" x="30" y="0" width="17" height="40"></rect>
        <rect id="path-9" x="236" y="0" width="17" height="40"></rect>
        <rect id="path-10" x="266" y="0" width="17" height="40"></rect>
        <rect id="path-11" x="0" y="0" width="17" height="40"></rect>
        <rect id="path-12" x="30" y="0" width="17" height="40"></rect>
        <rect id="path-13" x="59" y="0" width="17" height="40"></rect>
        <rect id="path-14" x="89" y="0" width="17" height="40"></rect>
        <rect id="path-15" x="119" y="0" width="17" height="40"></rect>
        <rect id="path-16" x="148" y="0" width="17" height="40"></rect>
        <rect id="path-17" x="178" y="0" width="17" height="40"></rect>
        <rect id="path-18" x="207" y="0" width="17" height="40"></rect>
        <rect id="path-19" x="237" y="0" width="17" height="40"></rect>
        <rect id="path-20" x="266" y="0" width="17" height="40"></rect>
        <rect id="path-21" x="0" y="0" width="17" height="40"></rect>
        <rect id="path-22" x="30" y="0" width="17" height="40"></rect>
        <rect id="path-23" x="59" y="0" width="17" height="40"></rect>
        <rect id="path-24" x="89" y="0" width="17" height="40"></rect>
        <rect id="path-25" x="119" y="0" width="17" height="40"></rect>
        <rect id="path-26" x="148" y="0" width="17" height="40"></rect>
        <rect id="path-27" x="0" y="0" width="17" height="40"></rect>
        <rect id="path-28" x="30" y="0" width="17" height="40"></rect>
        <rect id="path-29" x="59" y="0" width="17" height="40"></rect>
        <rect id="path-30" x="89" y="0" width="17" height="40"></rect>
        <rect id="path-31" x="119" y="0" width="17" height="40"></rect>
        <rect id="path-32" x="148" y="0" width="17" height="40"></rect>
        <rect id="path-33" x="0" y="0" width="17" height="40"></rect>
        <rect id="path-34" x="30" y="0" width="17" height="40"></rect>
        <rect id="path-35" x="59" y="0" width="17" height="40"></rect>
        <rect id="path-36" x="89" y="0" width="17" height="40"></rect>
        <rect id="path-37" x="119" y="0" width="17" height="40"></rect>
        <rect id="path-38" x="148" y="0" width="17" height="40"></rect>
        <rect id="path-39" x="0" y="0" width="17" height="40"></rect>
        <rect id="path-40" x="30" y="0" width="17" height="40"></rect>
        <rect id="path-41" x="59" y="0" width="17" height="40"></rect>
        <rect id="path-42" x="89" y="0" width="17" height="40"></rect>
        <rect id="path-43" x="119" y="0" width="17" height="40"></rect>
        <rect id="path-44" x="148" y="0" width="17" height="40"></rect>
    </defs>
    <g id="Page-1" stroke="none" stroke-width="1" fill="none" fill-rule="evenodd">
        <g id="Group-4">
            <polygon id="Rectangle-6" fill-opacity="0.17762115" fill="#8390EC" points="48.15625 346.024359 778.84375 346.024359 827 427 0 427"></polygon>
            <path d="M60,274.5 L60,16 L768,16 L768,274.5 L768,390 L751,390 L751,275 L717.333333,275 L717.333333,390 L700.333333,390 L700.333333,275 L666.666667,275 L666.666667,390 L649.666667,390 L649.666667,275 L616,275 L616,390 L599,390 L599,275 L230,275 L230,390 L213,390 L213,275 L179.333333,275 L179.333333,390 L162.333333,390 L162.333333,275 L128.666667,275 L128.666667,390 L111.666667,390 L111.666667,275 L77,275 L77,390 L60,390 L60,274.5 Z" id="Combined-Shape" stroke="#5154AA" stroke-width="2" fill="#FFFFFF"></path>
            <g id="Rectangle">
                <use fill="#FFFFFF" fill-rule="evenodd" xlink:href="#path-1"></use>
                <rect stroke="#5154AA" stroke-width="2" x="263" y="1" width="301" height="388"></rect>
            </g>
            <g id="Rectangle-3">
                <use fill="#FFFFFF" fill-rule="evenodd" xlink:href="#path-2"></use>
                <rect stroke="#5154AA" stroke-width="2" x="391" y="196" width="45" height="193"></rect>
            </g>
            <g id="Rectangle-3">
                <use fill="#FFFFFF" fill-rule="evenodd" xlink:href="#path-3"></use>
                <rect stroke="#5154AA" stroke-width="2" x="450" y="196" width="45" height="193"></rect>
            </g>
            <g id="Rectangle-3">
                <use fill="#FFFFFF" fill-rule="evenodd" xlink:href="#path-4"></use>
                <rect stroke="#5154AA" stroke-width="2" x="332" y="196" width="45" height="193"></rect>
            </g>
            <g id="Rectangle-3">
                <use fill="#FFFFFF" fill-rule="evenodd" xlink:href="#path-5"></use>
                <rect stroke="#5154AA" stroke-width="2" x="273" y="276" width="45" height="113"></rect>
            </g>
            <g id="Rectangle-3">
                <use fill="#FFFFFF" fill-rule="evenodd" xlink:href="#path-6"></use>
                <rect stroke="#5154AA" stroke-width="2" x="509" y="276" width="45" height="113"></rect>
            </g>
            <g id="Group-3" transform="translate(272.000000, 210.000000)">
                <g id="Rectangle-3">
                    <use fill="#FFFFFF" fill-rule="evenodd" xlink:href="#path-7"></use>
                    <rect stroke="#5154AA" stroke-width="2" x="1" y="1" width="15" height="38"></rect>
                </g>
                <g id="Rectangle-3">
                    <use fill="#FFFFFF" fill-rule="evenodd" xlink:href="#path-8"></use>
                    <rect stroke="#5154AA" stroke-width="2" x="31" y="1" width="15" height="38"></rect>
                </g>
                <g id="Rectangle-3">
                    <use fill="#FFFFFF" fill-rule="evenodd" xlink:href="#path-9"></use>
                    <rect stroke="#5154AA" stroke-width="2" x="237" y="1" width="15" height="38"></rect>
                </g>
                <g id="Rectangle-3">
                    <use fill="#FFFFFF" fill-rule="evenodd" xlink:href="#path-10"></use>
                    <rect stroke="#5154AA" stroke-width="2" x="267" y="1" width="15" height="38"></rect>
                </g>
            </g>
            <g id="Group" transform="translate(273.000000, 85.000000)">
                <g id="Rectangle-3">
                    <use fill="#FFFFFF" fill-rule="evenodd" xlink:href="#path-11"></use>
                    <rect stroke="#5154AA" stroke-width="2" x="1" y="1" width="15" height="38"></rect>
                </g>
                <g id="Rectangle-3">
                    <use fill="#FFFFFF" fill-rule="evenodd" xlink:href="#path-12"></use>
                    <rect stroke="#5154AA" stroke-width="2" x="31" y="1" width="15" height="38"></rect>
                </g>
                <g id="Rectangle-3">
                    <use fill="#FFFFFF" fill-rule="evenodd" xlink:href="#path-13"></use>
                    <rect stroke="#5154AA" stroke-width="2" x="60" y="1" width="15" height="38"></rect>
                </g>
                <g id="Rectangle-3">
                    <use fill="#FFFFFF" fill-rule="evenodd" xlink:href="#path-14"></use>
                    <rect stroke="#5154AA" stroke-width="2" x="90" y="1" width="15" height="38"></rect>
                </g>
                <g id="Rectangle-3">
                    <use fill="#FFFFFF" fill-rule="evenodd" xlink:href="#path-15"></use>
                    <rect stroke="#5154AA" stroke-width="2" x="120" y="1" width="15" height="38"></rect>
                </g>
                <g id="Rectangle-3">
                    <use fill="#FFFFFF" fill-rule="evenodd" xlink:href="#path-16"></use>
                    <rect stroke="#5154AA" stroke-width="2" x="149" y="1" width="15" height="38"></rect>
                </g>
                <g id="Rectangle-3">
                    <use fill="#FFFFFF" fill-rule="evenodd" xlink:href="#path-17"></use>
                    <rect stroke="#5154AA" stroke-width="2" x="179" y="1" width="15" height="38"></rect>
                </g>
                <g id="Rectangle-3">
                    <use fill="#FFFFFF" fill-rule="evenodd" xlink:href="#path-18"></use>
                    <rect stroke="#5154AA" stroke-width="2" x="208" y="1" width="15" height="38"></rect>
                </g>
                <g id="Rectangle-3">
                    <use fill="#FFFFFF" fill-rule="evenodd" xlink:href="#path-19"></use>
                    <rect stroke="#5154AA" stroke-width="2" x="238" y="1" width="15" height="38"></rect>
                </g>
                <g id="Rectangle-3">
                    <use fill="#FFFFFF" fill-rule="evenodd" xlink:href="#path-20"></use>
                    <rect stroke="#5154AA" stroke-width="2" x="267" y="1" width="15" height="38"></rect>
                </g>
            </g>
            <path d="M60.5,35.5 L262.5,35.5" id="Line" stroke="#5154AA" stroke-linecap="square"></path>
            <path d="M565,37 L767,37" id="Line" stroke="#5154AA" stroke-linecap="square"></path>
            <g id="Group" transform="translate(79.000000, 85.000000)">
                <g id="Rectangle-3">
                    <use fill="#FFFFFF" fill-rule="evenodd" xlink:href="#path-21"></use>
                    <rect stroke="#5154AA" stroke-width="2" x="1" y="1" width="15" height="38"></rect>
                </g>
                <g id="Rectangle-3">
                    <use fill="#FFFFFF" fill-rule="evenodd" xlink:href="#path-22"></use>
                    <rect stroke="#5154AA" stroke-width="2" x="31" y="1" width="15" height="38"></rect>
                </g>
                <g id="Rectangle-3">
                    <use fill="#FFFFFF" fill-rule="evenodd" xlink:href="#path-23"></use>
                    <rect stroke="#5154AA" stroke-width="2" x="60" y="1" width="15" height="38"></rect>
                </g>
                <g id="Rectangle-3">
                    <use fill="#FFFFFF" fill-rule="evenodd" xlink:href="#path-24"></use>
                    <rect stroke="#5154AA" stroke-width="2" x="90" y="1" width="15" height="38"></rect>
                </g>
                <g id="Rectangle-3">
                    <use fill="#FFFFFF" fill-rule="evenodd" xlink:href="#path-25"></use>
                    <rect stroke="#5154AA" stroke-width="2" x="120" y="1" width="15" height="38"></rect>
                </g>
                <g id="Rectangle-3">
                    <use fill="#FFFFFF" fill-rule="evenodd" xlink:href="#path-26"></use>
                    <rect stroke="#5154AA" stroke-width="2" x="149" y="1" width="15" height="38"></rect>
                </g>
            </g>
            <g id="Group" transform="translate(79.000000, 210.000000)">
                <g id="Rectangle-3">
                    <use fill="#FFFFFF" fill-rule="evenodd" xlink:href="#path-27"></use>
                    <rect stroke="#5154AA" stroke-width="2" x="1" y="1" width="15" height="38"></rect>
                </g>
                <g id="Rectangle-3">
                    <use fill="#FFFFFF" fill-rule="evenodd" xlink:href="#path-28"></use>
                    <rect stroke="#5154AA" stroke-width="2" x="31" y="1" width="15" height="38"></rect>
                </g>
                <g id="Rectangle-3">
                    <use fill="#FFFFFF" fill-rule="evenodd" xlink:href="#path-29"></use>
                    <rect stroke="#5154AA" stroke-width="2" x="60" y="1" width="15" height="38"></rect>
                </g>
                <g id="Rectangle-3">
                    <use fill="#FFFFFF" fill-rule="evenodd" xlink:href="#path-30"></use>
                    <rect stroke="#5154AA" stroke-width="2" x="90" y="1" width="15" height="38"></rect>
                </g>
                <g id="Rectangle-3">
                    <use fill="#FFFFFF" fill-rule="evenodd" xlink:href="#path-31"></use>
                    <rect stroke="#5154AA" stroke-width="2" x="120" y="1" width="15" height="38"></rect>
                </g>
                <g id="Rectangle-3">
                    <use fill="#FFFFFF" fill-rule="evenodd" xlink:href="#path-32"></use>
                    <rect stroke="#5154AA" stroke-width="2" x="149" y="1" width="15" height="38"></rect>
                </g>
            </g>
            <g id="Group" transform="translate(584.000000, 210.000000)">
                <g id="Rectangle-3">
                    <use fill="#FFFFFF" fill-rule="evenodd" xlink:href="#path-33"></use>
                    <rect stroke="#5154AA" stroke-width="2" x="1" y="1" width="15" height="38"></rect>
                </g>
                <g id="Rectangle-3">
                    <use fill="#FFFFFF" fill-rule="evenodd" xlink:href="#path-34"></use>
                    <rect stroke="#5154AA" stroke-width="2" x="31" y="1" width="15" height="38"></rect>
                </g>
                <g id="Rectangle-3">
                    <use fill="#FFFFFF" fill-rule="evenodd" xlink:href="#path-35"></use>
                    <rect stroke="#5154AA" stroke-width="2" x="60" y="1" width="15" height="38"></rect>
                </g>
                <g id="Rectangle-3">
                    <use fill="#FFFFFF" fill-rule="evenodd" xlink:href="#path-36"></use>
                    <rect stroke="#5154AA" stroke-width="2" x="90" y="1" width="15" height="38"></rect>
                </g>
                <g id="Rectangle-3">
                    <use fill="#FFFFFF" fill-rule="evenodd" xlink:href="#path-37"></use>
                    <rect stroke="#5154AA" stroke-width="2" x="120" y="1" width="15" height="38"></rect>
                </g>
                <g id="Rectangle-3">
                    <use fill="#FFFFFF" fill-rule="evenodd" xlink:href="#path-38"></use>
                    <rect stroke="#5154AA" stroke-width="2" x="149" y="1" width="15" height="38"></rect>
                </g>
            </g>
            <g id="Group" transform="translate(584.000000, 85.000000)">
                <g id="Rectangle-3">
                    <use fill="#FFFFFF" fill-rule="evenodd" xlink:href="#path-39"></use>
                    <rect stroke="#5154AA" stroke-width="2" x="1" y="1" width="15" height="38"></rect>
                </g>
                <g id="Rectangle-3">
                    <use fill="#FFFFFF" fill-rule="evenodd" xlink:href="#path-40"></use>
                    <rect stroke="#5154AA" stroke-width="2" x="31" y="1" width="15" height="38"></rect>
                </g>
                <g id="Rectangle-3">
                    <use fill="#FFFFFF" fill-rule="evenodd" xlink:href="#path-41"></use>
                    <rect stroke="#5154AA" stroke-width="2" x="60" y="1" width="15" height="38"></rect>
                </g>
                <g id="Rectangle-3">
                    <use fill="#FFFFFF" fill-rule="evenodd" xlink:href="#path-42"></use>
                    <rect stroke="#5154AA" stroke-width="2" x="90" y="1" width="15" height="38"></rect>
                </g>
                <g id="Rectangle-3">
                    <use fill="#FFFFFF" fill-rule="evenodd" xlink:href="#path-43"></use>
                    <rect stroke="#5154AA" stroke-width="2" x="120" y="1" width="15" height="38"></rect>
                </g>
                <g id="Rectangle-3">
                    <use fill="#FFFFFF" fill-rule="evenodd" xlink:href="#path-44"></use>
                    <rect stroke="#5154AA" stroke-width="2" x="149" y="1" width="15" height="38"></rect>
                </g>
            </g>
            <g id="Group-2" transform="translate(599.000000, 274.000000)"></g>
            <rect id="Rectangle-5" fill="#E9ECFC" x="274" y="346" width="43" height="50"></rect>
            <rect id="Rectangle-5" fill="#E9ECFC" x="333" y="346" width="43" height="50"></rect>
            <rect id="Rectangle-5" fill="#E9ECFC" x="392" y="346" width="43" height="50"></rect>
            <rect id="Rectangle-5" fill="#E9ECFC" x="451" y="346" width="43" height="50"></rect>
            <rect id="Rectangle-5" fill="#E9ECFC" x="510" y="346" width="43" height="50"></rect>
        </g>
    </g>
</svg>